<?xml version="1.0" encoding="UTF-8"?>
<!-- Generator: Adobe Illustrator 22.0.0, SVG Export Plug-In . SVG Version: 6.00 Build 0) -->
<svg xmlns="http://www.w3.org/2000/svg" xmlns:xlink="http://www.w3.org/1999/xlink" version="1.1" id="Layer_1" x="0px" y="0px" viewBox="0 0 899.898 309.554" style="enable-background:new 0 0 899.898 309.554;" xml:space="preserve"> <style type="text/css"> .st0{fill:#242642;} .st1{fill:#6680BA;} .st2{fill:#2E3B87;} .st3{fill:#B2C9D4;} </style> <g> <g> <path class="st0" d="M402.07,133.762c-0.171-2.906-1.71-5.129-3.933-6.669c-2.053-1.708-4.788-2.564-7.525-2.564 c-4.788,0-10.26,1.028-10.26,6.841c0,2.564,2.052,3.763,3.933,4.617c5.642,2.393,18.468,3.079,29.754,6.841 c11.286,3.592,21.206,10.26,21.206,24.795c0,24.624-23.599,31.294-45.146,31.294c-20.862,0-43.777-8.379-44.29-31.294h32.32 c0.171,3.078,1.539,5.642,4.105,7.867c1.709,1.537,4.958,2.564,9.063,2.564c4.446,0,11.456-1.71,11.456-6.841 c0-5.13-2.907-6.669-18.639-9.404c-25.821-4.447-36.251-12.656-36.251-27.875c0-22.402,24.11-28.215,41.895-28.215 c19.153,0,42.238,5.3,43.093,28.044H402.07z"/> <path class="st0" d="M525.516,176.854c0,6.671,0.342,14.195,4.104,19.837h-34.542c-0.855-2.393-1.368-5.984-1.196-8.38h-0.343 c-7.181,8.209-17.613,10.602-28.557,10.602c-17.101,0-31.294-8.206-31.294-26.846c0-28.045,32.833-27.019,50.103-30.269 c4.617-0.854,9.234-2.221,9.234-7.866c0-5.984-5.643-8.209-11.115-8.209c-10.431,0-12.482,5.301-12.655,9.064h-31.463 c1.026-24.966,24.624-29.07,45.659-29.07c42.408,0,42.066,17.613,42.066,34.713V176.854z M493.025,156.848 c-4.104,2.051-8.721,3.25-13.338,4.276c-7.523,1.708-11.457,3.591-11.457,9.575c0,4.104,4.446,8.209,10.602,8.209 c7.696,0,13.681-4.618,14.193-13.852V156.848z"/> <path class="st0" d="M533.179,107.94h32.662v11.286h0.342c6.326-8.891,15.389-13.507,28.899-13.507 c15.903,0,30.438,9.746,30.438,30.096v60.877h-33.858v-46.513c0-10.26-1.197-17.441-11.115-17.441 c-5.814,0-13.51,2.906-13.51,17.101v46.854h-33.858V107.94z"/> <path class="st0" d="M724.327,185.235c0,17.613-4.617,42.41-46.171,42.41c-21.033,0-43.264-5.644-46.342-29.584h33.516 c0.342,0.854,1.197,2.051,1.882,3.078c2.052,3.078,5.643,6.497,9.918,6.497c10.944,0,13.339-12.994,13.339-20.348v-8.209h-0.343 c-5.472,7.867-13.679,12.311-23.769,12.311c-26.163,0-37.963-19.494-37.963-43.264c0-23.083,13.168-42.408,38.476-42.408 c9.918,0,19.323,3.934,23.256,12.996h0.343V107.94h33.858V185.235z M677.472,169.672c12.484,0,13.851-11.968,13.851-21.887 c0-9.747-4.788-17.443-14.706-17.443c-9.576,0-14.364,8.209-14.364,17.613C662.253,158.045,665.33,169.672,677.472,169.672"/> <path class="st0" d="M759.743,159.925c0.855,10.089,6.669,17.27,17.272,17.27c5.472,0,11.457-2.05,14.193-6.326h31.636 c-6.841,19.153-25.479,28.045-45.657,28.045c-28.388,0-49.763-16.759-49.763-46.342c0-25.821,18.811-46.855,46.855-46.855 c35.226,0,50.447,19.666,50.447,54.207H759.743z M792.232,142.312c0-8.208-6.155-14.877-14.876-14.877 c-10.09,0-15.905,5.302-17.443,14.877H792.232z"/> <path class="st0" d="M828.126,107.94h32.491v14.193h0.342c5.472-10.601,12.655-16.414,24.966-16.414 c3.42,0,6.669,0.513,9.918,1.367v29.925c-3.42-1.196-6.498-2.222-13.338-2.222c-13.339,0-20.52,7.867-20.52,26.848v35.055h-33.859 V107.94z"/> <path class="st0" d="M365.704,224.744h-12.296v-8.633h12.296V224.744z M353.407,228.22h12.296v32.231h-12.296V228.22z"/> <path class="st0" d="M368.687,228.221h11.862v4.099h0.125c2.297-3.23,5.59-4.907,10.495-4.907c5.776,0,11.054,3.539,11.054,10.929 v22.11h-12.296v-16.891c0-3.727-0.435-6.335-4.036-6.335c-2.112,0-4.907,1.056-4.907,6.211v17.014h-12.296V228.221z"/> <path class="st0" d="M423.792,237.598c-0.061-1.056-0.621-1.862-1.428-2.42c-0.744-0.623-1.739-0.934-2.732-0.934 c-1.74,0-3.727,0.373-3.727,2.484c0,0.933,0.745,1.366,1.428,1.677c2.05,0.87,6.707,1.117,10.806,2.485 c4.1,1.305,7.701,3.727,7.701,9.005c0,8.942-8.57,11.365-16.395,11.365c-7.576,0-15.898-3.044-16.083-11.365h11.736 c0.062,1.116,0.559,2.049,1.491,2.855c0.622,0.561,1.802,0.933,3.291,0.933c1.616,0,4.161-0.622,4.161-2.483 c0-1.864-1.055-2.425-6.769-3.417c-9.377-1.614-13.165-4.596-13.165-10.122c0-8.136,8.757-10.249,15.215-10.249 c6.955,0,15.34,1.926,15.65,10.185H423.792z"/> <path class="st0" d="M452.075,228.221h6.582v7.576h-6.582v11.24c0,2.983,0.683,4.286,3.788,4.286c0.931,0,1.863-0.062,2.794-0.187 v9.316c-2.483,0-5.279,0.372-7.887,0.372c-5.216,0-10.992-0.807-10.992-9.625v-15.403h-5.465v-7.576h5.465v-9.811h12.297V228.221z "/> <path class="st0" d="M472.938,224.744h-12.296v-8.633h12.296V224.744z M460.64,228.22h12.296v32.231H460.64V228.22z"/> <path class="st0" d="M492.559,228.221h6.582v7.576h-6.582v11.24c0,2.983,0.682,4.286,3.788,4.286c0.931,0,1.863-0.062,2.794-0.187 v9.316c-2.483,0-5.279,0.372-7.887,0.372c-5.217,0-10.992-0.807-10.992-9.625v-15.403h-5.466v-7.576h5.466v-9.811h12.297V228.221z "/> <path class="st0" d="M534.413,260.453h-11.861v-4.099h-0.125c-2.297,3.23-5.59,4.907-10.496,4.907 c-5.774,0-11.054-3.539-11.054-10.929v-22.11h12.296v16.891c0,3.727,0.435,6.335,4.038,6.335c2.111,0,4.905-1.056,4.905-6.211 v-17.014h12.297V260.453z"/> <path class="st0" d="M552.25,228.221h6.582v7.576h-6.582v11.24c0,2.983,0.682,4.286,3.788,4.286c0.931,0,1.863-0.062,2.794-0.187 v9.316c-2.483,0-5.279,0.372-7.887,0.372c-5.218,0-10.992-0.807-10.992-9.625v-15.403h-5.466v-7.576h5.466v-9.811h12.297V228.221z "/> <path class="st0" d="M570.938,247.101c0.31,3.664,2.422,6.271,6.272,6.271c1.988,0,4.161-0.744,5.154-2.296h11.489 c-2.483,6.953-9.253,10.185-16.58,10.185c-10.309,0-18.072-6.088-18.072-16.831c0-9.376,6.831-17.018,17.016-17.018 c12.793,0,18.32,7.144,18.32,19.689H570.938z M582.738,240.703c0-2.981-2.236-5.402-5.402-5.402c-3.666,0-5.777,1.925-6.335,5.402 H582.738z"/> <g> <path class="st0" d="M432.066,59.57c-2.206-7.384-7.654-11.458-16.953-11.458c-7.174,0-12.642,3.641-15.41,9.008l2.538-8.176 H389.49L384.942,69.6h-0.25l-4.379-20.655h-11.485L364.699,69.6h-0.19l-4.866-20.655h-12.737l10.111,33.209h12.554l4.866-20.547 h0.19l4.738,20.547h12.561l5.962-19.193c-0.122,0.88-0.203,1.773-0.203,2.687c0,11.065,7.634,17.339,17.989,17.339 c7.126,0,13.563-2.958,16.392-9.299v8.466h12.175V36.465h-12.175V59.57z M415.676,56.041c3.567,0,5.875,2.565,5.875,5.895 h-12.182C409.991,58.085,412.177,56.041,415.676,56.041z M432.068,72.673h-10.964c-1.062,1.611-3.303,2.375-5.306,2.375 c-3.986,0-6.166-2.761-6.484-6.72h22.753V72.673z"/> <path class="st0" d="M598.608,75.048c-4.007,0-6.179-2.761-6.491-6.721h23.911c-0.054-12.859-5.617-20.215-18.11-20.215 c-8.69,0-14.869,5.333-16.784,12.615v-1.414c0-5.38-2.802-11.201-11.058-11.201c-4.799,0-7.749,1.719-9.435,3.384 c-0.176,0.197-0.365,0.393-0.487,0.575c-0.63,0.65-0.948,1.096-1.191,1.354c-1.556-3.458-5.312-5.313-8.744-5.313 c-4.494,0-8.114,1.408-10.673,5.313h-0.197v-4.48h-11.803v16.568v16.642h12.182V64.165c0-3.512,1.062-6.132,4.311-6.132 c3.932,0,4.175,2.998,4.175,6.132v17.989h12.25V64.165c0-3.512,1.056-6.132,4.298-6.132c3.878,0,4.189,2.998,4.189,6.132v17.989 h12.182v-11.37c2.01,7.837,8.717,12.202,17.346,12.202c7.499,0,14.246-3.262,16.805-10.314H603.9 C602.851,74.283,600.604,75.048,598.608,75.048z M598.481,56.041c3.56,0,5.854,2.565,5.854,5.895h-12.162 C592.802,58.085,594.988,56.041,598.481,56.041z"/> <path class="st0" d="M509.875,48.112c-9.096,0-14.463,4.575-16.601,10.727c-1.787-7.465-8.608-10.727-15.796-10.727 c-9.042,0-15.918,5.367-17.468,13.752V36.465h-12.182v45.689h12.182V69.627c1.53,8.812,8.189,13.36,17.095,13.36 c7.614,0,13.888-3.79,16.209-10.68c2.166,6.118,7.519,10.68,16.561,10.68c12.175,0,17.671-8.257,17.671-17.474 C527.546,56.308,522.051,48.112,509.875,48.112z M482.417,69.023c-0.325,2.694-1.996,4.934-5.184,4.934 c-3.932,0-5.374-3.066-5.374-8.385c0-4.034,0.995-8.439,5.624-8.439c2.876,0,4.609,1.922,4.609,5.251h10.335 c-0.149,1.022-0.23,2.071-0.23,3.127c0,1.191,0.095,2.369,0.284,3.512H482.417z M509.877,73.959 c-4.805,0-5.502-4.866-5.502-8.447c0-3.58,0.697-8.378,5.502-8.378c4.798,0,5.489,4.798,5.489,8.378 C515.366,69.093,514.676,73.959,509.877,73.959z"/> </g> </g> <g> <path class="st1" d="M21.814,72.84H9.369c-1.912,0-3.462-1.55-3.462-3.462V56.934c0-1.912,1.55-3.462,3.462-3.462h12.444 c1.912,0,3.462,1.55,3.462,3.462v12.444C25.275,71.29,23.726,72.84,21.814,72.84z"/> <path class="st2" d="M164.38,80.372h-22.123c-3.399,0-6.154-2.755-6.154-6.154V52.094c0-3.399,2.755-6.154,6.154-6.154h22.123 c3.399,0,6.154,2.755,6.154,6.154v22.123C170.534,77.616,167.779,80.372,164.38,80.372z"/> <path class="st3" d="M207.523,30.159h-16.592c-2.549,0-4.616-2.066-4.616-4.616V8.951c0-2.549,2.066-4.616,4.616-4.616h16.592 c2.549,0,4.616,2.066,4.616,4.616v16.592C212.139,28.092,210.072,30.159,207.523,30.159z"/> <path class="st1" d="M210.289,80.372h-22.123c-3.399,0-6.154-2.755-6.154-6.154V52.094c0-3.399,2.755-6.154,6.154-6.154h22.123 c3.399,0,6.154,2.755,6.154,6.154v22.123C216.443,77.616,213.687,80.372,210.289,80.372z"/> <path class="st1" d="M251.358,26.931h-12.444c-1.912,0-3.462-1.55-3.462-3.462V11.025c0-1.912,1.55-3.462,3.462-3.462h12.444 c1.912,0,3.462,1.55,3.462,3.462v12.444C254.82,25.381,253.27,26.931,251.358,26.931z"/> <path class="st3" d="M299.341,76.068h-16.592c-2.549,0-4.616-2.066-4.616-4.616V54.86c0-2.549,2.066-4.616,4.616-4.616h16.592 c2.549,0,4.616,2.066,4.616,4.616v16.592C303.957,74.001,301.89,76.068,299.341,76.068z"/> <path class="st1" d="M23.888,167.885H7.295c-2.549,0-4.616-2.066-4.616-4.616v-16.592c0-2.549,2.066-4.616,4.616-4.616h16.592 c2.549,0,4.616,2.066,4.616,4.616v16.592C28.503,165.819,26.437,167.885,23.888,167.885z"/> <path class="st3" d="M72.562,126.28H50.439c-3.399,0-6.154-2.755-6.154-6.154V98.003c0-3.399,2.755-6.154,6.154-6.154h22.123 c3.399,0,6.154,2.755,6.154,6.154v22.123C78.716,123.525,75.961,126.28,72.562,126.28z"/> <path class="st2" d="M72.562,172.189H50.439c-3.399,0-6.154-2.755-6.154-6.154v-22.123c0-3.399,2.755-6.154,6.154-6.154h22.123 c3.399,0,6.154,2.755,6.154,6.154v22.123C78.716,169.434,75.961,172.189,72.562,172.189z"/> <path class="st1" d="M120.683,175.632H94.135c-4.079,0-7.385-3.306-7.385-7.385v-26.548c0-4.079,3.306-7.385,7.385-7.385h26.548 c4.079,0,7.385,3.306,7.385,7.385v26.548C128.068,172.326,124.762,175.632,120.683,175.632z"/> <path class="st1" d="M166.592,129.724h-26.548c-4.079,0-7.385-3.306-7.385-7.385V95.791c0-4.079,3.306-7.385,7.385-7.385h26.548 c4.079,0,7.385,3.306,7.385,7.385v26.548C173.977,126.417,170.671,129.724,166.592,129.724z"/> <path class="st3" d="M166.592,175.632h-26.548c-4.079,0-7.385-3.306-7.385-7.385v-26.548c0-4.079,3.306-7.385,7.385-7.385h26.548 c4.079,0,7.385,3.306,7.385,7.385v26.548C173.977,172.326,170.671,175.632,166.592,175.632z"/> <path class="st3" d="M212.501,129.724h-26.548c-4.079,0-7.385-3.306-7.385-7.385V95.791c0-4.079,3.306-7.385,7.385-7.385h26.548 c4.079,0,7.385,3.306,7.385,7.385v26.548C219.886,126.417,216.58,129.724,212.501,129.724z"/> <path class="st2" d="M256.197,172.189h-22.123c-3.399,0-6.154-2.755-6.154-6.154v-22.123c0-3.399,2.755-6.154,6.154-6.154h22.123 c3.399,0,6.154,2.755,6.154,6.154v22.123C262.352,169.434,259.596,172.189,256.197,172.189z"/> <path class="st3" d="M72.562,264.007H50.439c-3.399,0-6.154-2.755-6.154-6.154v-22.123c0-3.399,2.755-6.154,6.154-6.154h22.123 c3.399,0,6.154,2.755,6.154,6.154v22.123C78.716,261.252,75.961,264.007,72.562,264.007z"/> <path class="st2" d="M120.683,221.541H94.135c-4.079,0-7.385-3.306-7.385-7.385v-26.548c0-4.079,3.306-7.385,7.385-7.385h26.548 c4.079,0,7.385,3.306,7.385,7.385v26.548C128.068,218.235,124.762,221.541,120.683,221.541z"/> <path class="st2" d="M164.38,264.007h-22.123c-3.399,0-6.154-2.755-6.154-6.154v-22.123c0-3.399,2.755-6.154,6.154-6.154h22.123 c3.399,0,6.154,2.755,6.154,6.154v22.123C170.534,261.252,167.779,264.007,164.38,264.007z"/> <path class="st2" d="M212.501,221.541h-26.548c-4.079,0-7.385-3.306-7.385-7.385v-26.548c0-4.079,3.306-7.385,7.385-7.385h26.548 c4.079,0,7.385,3.306,7.385,7.385v26.548C219.886,218.235,216.58,221.541,212.501,221.541z"/> <path class="st1" d="M210.289,264.007h-22.123c-3.399,0-6.154-2.755-6.154-6.154v-22.123c0-3.399,2.755-6.154,6.154-6.154h22.123 c3.399,0,6.154,2.755,6.154,6.154v22.123C216.443,261.252,213.687,264.007,210.289,264.007z"/> <path class="st3" d="M256.197,218.098h-22.123c-3.399,0-6.154-2.755-6.154-6.154v-22.123c0-3.399,2.755-6.154,6.154-6.154h22.123 c3.399,0,6.154,2.755,6.154,6.154v22.123C262.352,215.343,259.596,218.098,256.197,218.098z"/> <path class="st1" d="M297.267,256.475h-12.444c-1.912,0-3.462-1.55-3.462-3.462v-12.444c0-1.912,1.55-3.462,3.462-3.462h12.444 c1.912,0,3.462,1.55,3.462,3.462v12.444C300.729,254.925,299.179,256.475,297.267,256.475z"/> <path class="st2" d="M21.814,302.384H9.369c-1.912,0-3.462-1.55-3.462-3.462v-12.444c0-1.912,1.55-3.462,3.462-3.462h12.444 c1.912,0,3.462,1.55,3.462,3.462v12.444C25.275,300.834,23.726,302.384,21.814,302.384z"/> <path class="st3" d="M253.432,305.612H236.84c-2.549,0-4.616-2.066-4.616-4.616v-16.592c0-2.549,2.066-4.616,4.616-4.616h16.592 c2.549,0,4.616,2.066,4.616,4.616v16.592C258.048,303.545,255.981,305.612,253.432,305.612z"/> </g> </g> </svg>